<svg xmlns="http://www.w3.org/2000/svg" viewBox="0 0 64 64"><title>64-5</title><g id="Pen"><path d="M63.0029,2.5889,61.4111.9966a3.4153,3.4153,0,0,0-4.8222,0L53.9879,3.598a2.9972,2.9972,0,0,0-4.109.109L5.293,48.293a1.149,1.149,0,0,0-.2764.5283L3.0726,59.5134l-2.78,2.78a1,1,0,0,0,1.414,1.414l2.7791-2.779,10.6926-1.9441a1.1713,1.1713,0,0,0,.5283-.2769L56.5,17.9143l.6717.6716a2.0029,2.0029,0,0,1,0,2.8282L45.293,33.293a5.2408,5.2408,0,0,0,0,7.414,1,1,0,0,0,1.414-1.414,3.2418,3.2418,0,0,1,0-4.586L58.5859,22.8281a4.0056,4.0056,0,0,0,0-5.6562L57.9143,16.5l2.3787-2.3786a2.9773,2.9773,0,0,0,.1093-4.11l2.6006-2.6A3.4075,3.4075,0,0,0,63.0029,2.5889ZM15,56.5857,7.4141,49,47.5,8.9143,55.0859,16.5ZM6.6423,51.0563l6.301,6.3011-7.7011,1.4ZM58.8789,12.707,56.5,15.0859,48.9143,7.5,51.293,5.1216a1,1,0,0,1,1.414,0l6.1719,6.1724a.9989.9989,0,0,1,0,1.4135Zm2.71-6.71L59,8.5859,55.4142,5l2.5887-2.5882a1.4126,1.4126,0,0,1,1.9942-.0005l1.5918,1.5923A1.4093,1.4093,0,0,1,61.5889,5.9971Z" style="fill:#1b1a1e"/><path d="M45.707,18.293a.9994.9994,0,0,0-1.414,0l-27,27a1,1,0,0,0,1.414,1.414l27-27A.9994.9994,0,0,0,45.707,18.293Z" style="fill:#1b1a1e"/></g></svg>